<svg width="18" height="18" viewBox="0 0 18 18" fill="none" xmlns="http://www.w3.org/2000/svg">
<path d="M10.9506 15C11.1162 15 11.2521 15.1351 11.2303 15.2993C11.0839 16.4005 10.1412 17.25 9 17.25C7.85883 17.25 6.91608 16.4005 6.76973 15.2993C6.7479 15.1351 6.88376 15 7.04944 15C7.43808 15 8.16606 15 9 15C9.83394 15 10.5619 15 10.9506 15Z" fill="#B2BDCC"/>
<path fill-rule="evenodd" clip-rule="evenodd" d="M13.5 13.5001L16.5 16.5001L17.5607 15.4395L2.56066 0.439453L1.5 1.50011L4.10427 4.10439C3.87235 4.70333 3.75006 5.34542 3.75006 6.00011C3.75006 8.51461 3.21226 10.0761 2.71664 10.9847C2.46779 11.4409 2.22548 11.7402 2.05716 11.9179C1.9728 12.0069 1.90651 12.066 1.8666 12.0992C1.84663 12.1159 1.83324 12.1261 1.82747 12.1304L1.82533 12.132C1.55646 12.3167 1.43748 12.6545 1.53224 12.9675C1.62801 13.2838 1.91956 13.5001 2.25006 13.5001H13.5ZM14.9483 10.2668L6.22499 1.54347C7.0511 1.02909 8.0112 0.750113 9.00006 0.750113C10.3924 0.750113 11.7278 1.30324 12.7124 2.2878C13.6969 3.27237 14.2501 4.60773 14.2501 6.00011C14.2501 7.94746 14.5726 9.32321 14.9483 10.2668Z" fill="#B2BDCC"/>
</svg>
