<svg width="14" height="14" viewBox="0 0 14 14" fill="none" xmlns="http://www.w3.org/2000/svg">
<mask id="mask0_193_2498" style="mask-type:alpha" maskUnits="userSpaceOnUse" x="0" y="0" width="14" height="14">
<rect width="14" height="14" fill="#D9D9D9"/>
</mask>
<g mask="url(#mask0_193_2498)">
<path d="M2.33325 12.25V11.0833H11.6666V12.25H2.33325ZM4.66659 9.91667C4.02492 9.91667 3.47561 9.68819 3.01867 9.23125C2.56172 8.77431 2.33325 8.225 2.33325 7.58333V1.75H11.6666C11.9874 1.75 12.2621 1.86424 12.4905 2.09271C12.719 2.32118 12.8333 2.59583 12.8333 2.91667V4.66667C12.8333 4.9875 12.719 5.26215 12.4905 5.49062C12.2621 5.7191 11.9874 5.83333 11.6666 5.83333H10.4999V7.58333C10.4999 8.225 10.2714 8.77431 9.8145 9.23125C9.35756 9.68819 8.80825 9.91667 8.16658 9.91667H4.66659ZM10.4999 4.66667H11.6666V2.91667H10.4999V4.66667Z" fill="#F7CE45"/>
</g>
</svg>
