<svg width="14" height="14" viewBox="0 0 14 14" fill="none" xmlns="http://www.w3.org/2000/svg">
<mask id="mask0_185_2587" style="mask-type:alpha" maskUnits="userSpaceOnUse" x="0" y="0" width="14" height="14">
<rect width="14" height="14" fill="#D9D9D9"/>
</mask>
<g mask="url(#mask0_185_2587)">
<path d="M8.64385 12.0625C8.5369 12.1889 8.40322 12.2594 8.24281 12.274C8.08239 12.2885 7.93899 12.2424 7.8126 12.1354L5.58135 10.2688C5.09524 9.86042 4.74524 9.36458 4.53135 8.78125C4.31746 8.19792 4.26399 7.6 4.37093 6.9875L3.55426 6.30208C3.4376 6.19514 3.37197 6.06632 3.35739 5.91562C3.34281 5.76493 3.38413 5.62639 3.48135 5.5H2.76676V6.66667C2.76676 6.9875 2.65253 7.26215 2.42406 7.49062C2.19558 7.7191 1.92093 7.83333 1.6001 7.83333V2C1.92093 2 2.19558 2.11424 2.42406 2.34271C2.65253 2.57118 2.76676 2.84583 2.76676 3.16667V4.33333H4.44385L5.34801 3.23958C5.45496 3.11319 5.58864 3.04271 5.74906 3.02813C5.90947 3.01354 6.05288 3.05972 6.17926 3.16667L6.98135 3.8375C7.5744 3.61389 8.17718 3.55556 8.78968 3.6625C9.40218 3.76944 9.95149 4.02708 10.4376 4.43542L12.6688 6.30208C12.7952 6.40903 12.8657 6.54271 12.8803 6.70312C12.8949 6.86354 12.8487 7.00208 12.7418 7.11875L8.64385 12.0625Z" fill="#6D8CF7"/>
</g>
</svg>
