<svg width="14" height="14" viewBox="0 0 14 14" fill="none" xmlns="http://www.w3.org/2000/svg">
<mask id="mask0_193_2493" style="mask-type:alpha" maskUnits="userSpaceOnUse" x="0" y="0" width="14" height="14">
<rect width="14" height="14" fill="#D9D9D9"/>
</mask>
<g mask="url(#mask0_193_2493)">
<path d="M4.68119 10.5H6.43119V9.91667H5.26452V9.33333H6.43119V7.58333H4.68119V8.16667H5.84786V8.75H4.68119V10.5ZM8.76452 10.5H9.34786V7.58333H8.76452V8.75H8.18119V7.58333H7.59786V9.33333H8.76452V10.5ZM12.2645 6.44583V11.0833C12.2645 11.4042 12.1503 11.6788 11.9218 11.9073C11.6933 12.1358 11.4187 12.25 11.0979 12.25H2.93119C2.61036 12.25 2.3357 12.1358 2.10723 11.9073C1.87876 11.6788 1.76452 11.4042 1.76452 11.0833V6.44583C1.54091 6.24167 1.36834 5.97917 1.24681 5.65833C1.12529 5.3375 1.12286 4.9875 1.23952 4.60833L1.85202 2.625C1.9298 2.37222 2.06834 2.16319 2.26765 1.99792C2.46695 1.83264 2.69786 1.75 2.96036 1.75H11.0687C11.3312 1.75 11.5597 1.83021 11.7541 1.99062C11.9486 2.15104 12.0895 2.3625 12.177 2.625L12.7895 4.60833C12.9062 4.9875 12.9038 5.33264 12.7822 5.64375C12.6607 5.95486 12.4881 6.22222 12.2645 6.44583ZM8.29786 5.83333C8.56036 5.83333 8.75966 5.7434 8.89577 5.56354C9.03188 5.38368 9.08536 5.18194 9.05619 4.95833L8.73536 2.91667H7.59786V5.075C7.59786 5.27917 7.66591 5.4566 7.80202 5.60729C7.93813 5.75799 8.10341 5.83333 8.29786 5.83333ZM5.67286 5.83333C5.89647 5.83333 6.07876 5.75799 6.21973 5.60729C6.3607 5.4566 6.43119 5.27917 6.43119 5.075V2.91667H5.29369L4.97286 4.95833C4.93397 5.19167 4.98501 5.39583 5.12598 5.57083C5.26695 5.74583 5.44924 5.83333 5.67286 5.83333ZM3.07702 5.83333C3.25202 5.83333 3.40515 5.77014 3.5364 5.64375C3.66765 5.51736 3.74786 5.35694 3.77702 5.1625L4.09786 2.91667H2.96036L2.37702 4.87083C2.31869 5.06528 2.35029 5.27431 2.47181 5.49792C2.59334 5.72153 2.79508 5.83333 3.07702 5.83333ZM10.952 5.83333C11.234 5.83333 11.4381 5.72153 11.5645 5.49792C11.6909 5.27431 11.7201 5.06528 11.652 4.87083L11.0395 2.91667H9.93119L10.252 5.1625C10.2812 5.35694 10.3614 5.51736 10.4926 5.64375C10.6239 5.77014 10.777 5.83333 10.952 5.83333Z" fill="#6D8CF7"/>
</g>
</svg>
