<svg width="18" height="18" viewBox="0 0 18 18" fill="none" xmlns="http://www.w3.org/2000/svg">
<mask id="mask0_591_15114" style="mask-type:alpha" maskUnits="userSpaceOnUse" x="0" y="0" width="18" height="18">
<rect width="18" height="18" fill="#D9D9D9"/>
</mask>
<g mask="url(#mask0_591_15114)">
<path d="M15.7498 13.6121L4.3873 2.24961H14.2498C14.6623 2.24961 15.0154 2.39648 15.3092 2.69023C15.6029 2.98398 15.7498 3.33711 15.7498 3.74961V13.6121ZM14.8498 16.9496L13.6498 15.7496H3.7498C3.3373 15.7496 2.98418 15.6027 2.69043 15.309C2.39668 15.0152 2.2498 14.6621 2.2498 14.2496V4.34961L1.0498 3.14961L2.0998 2.09961L15.8998 15.8996L14.8498 16.9496ZM4.4998 12.7496H10.6311L9.05606 11.1746L8.43731 11.9996L6.74981 9.74961L4.4998 12.7496Z" fill="#B2BDCC"/>
</g>
</svg>
