<svg width="14" height="14" viewBox="0 0 14 14" fill="none" xmlns="http://www.w3.org/2000/svg">
<mask id="mask0_206_3699" style="mask-type:alpha" maskUnits="userSpaceOnUse" x="0" y="0" width="14" height="14">
<rect width="14" height="14" fill="#D9D9D9"/>
</mask>
<g mask="url(#mask0_206_3699)">
<path d="M2.63636 11.2857V5.92857L1.65455 6.71429L1 5.8L7 1L13 5.8L12.3455 6.7L11.3636 5.92857V6.3C11.1909 6.24286 11.0136 6.20238 10.8318 6.17857C10.65 6.15476 10.4636 6.14286 10.2727 6.14286C9.20909 6.14286 8.30682 6.53095 7.56591 7.30714C6.825 8.08333 6.45455 9.02857 6.45455 10.1429C6.45455 10.3333 6.46818 10.5238 6.49545 10.7143C6.52273 10.9048 6.56364 11.0952 6.61818 11.2857H2.63636ZM9.72727 13H7.54545V12.1429H8.32273C8.08636 11.8857 7.89773 11.5857 7.75682 11.2429C7.61591 10.9 7.54545 10.5333 7.54545 10.1429C7.54545 9.45714 7.75227 8.85238 8.16591 8.32857C8.57955 7.80476 9.1 7.47619 9.72727 7.34286V8.22857C9.32727 8.35238 9 8.5881 8.74545 8.93571C8.49091 9.28333 8.36364 9.68571 8.36364 10.1429C8.36364 10.419 8.41136 10.6762 8.50682 10.9143C8.60227 11.1524 8.73636 11.3619 8.90909 11.5429V10.7143H9.72727V13ZM10.8182 12.9429V12.0571C11.2273 11.9238 11.5568 11.6833 11.8068 11.3357C12.0568 10.9881 12.1818 10.5905 12.1818 10.1429C12.1818 9.86667 12.1341 9.60952 12.0386 9.37143C11.9432 9.13333 11.8091 8.92381 11.6364 8.74286V9.57143H10.8182V7.28571H13V8.14286H12.2227C12.4591 8.4 12.6477 8.7 12.7886 9.04286C12.9295 9.38571 13 9.75238 13 10.1429C13 10.8286 12.7932 11.4333 12.3795 11.9571C11.9659 12.481 11.4455 12.8095 10.8182 12.9429Z" fill="#6D8CF7"/>
</g>
</svg>
