<svg width="13" height="13" viewBox="0 0 13 13" fill="none" xmlns="http://www.w3.org/2000/svg">
<mask id="mask0_193_2638" style="mask-type:alpha" maskUnits="userSpaceOnUse" x="0" y="0" width="13" height="13">
<rect width="13" height="13" fill="#D9D9D9"/>
</mask>
<g mask="url(#mask0_193_2638)">
<path d="M3.79175 11.9166C3.49383 11.9166 3.2388 11.8105 3.02664 11.5984C2.81449 11.3862 2.70841 11.1312 2.70841 10.8333C2.70841 10.5353 2.81449 10.2803 3.02664 10.0681C3.2388 9.85599 3.49383 9.74992 3.79175 9.74992C4.08966 9.74992 4.3447 9.85599 4.55685 10.0681C4.76901 10.2803 4.87508 10.5353 4.87508 10.8333C4.87508 11.1312 4.76901 11.3862 4.55685 11.5984C4.3447 11.8105 4.08966 11.9166 3.79175 11.9166ZM9.20842 11.9166C8.9105 11.9166 8.65546 11.8105 8.44331 11.5984C8.23116 11.3862 8.12508 11.1312 8.12508 10.8333C8.12508 10.5353 8.23116 10.2803 8.44331 10.0681C8.65546 9.85599 8.9105 9.74992 9.20842 9.74992C9.50633 9.74992 9.76137 9.85599 9.97352 10.0681C10.1857 10.2803 10.2917 10.5353 10.2917 10.8333C10.2917 11.1312 10.1857 11.3862 9.97352 11.5984C9.76137 11.8105 9.50633 11.9166 9.20842 11.9166ZM2.81675 2.16659H10.8063C11.014 2.16659 11.172 2.25912 11.2803 2.44419C11.3886 2.62926 11.3931 2.81659 11.2938 3.00617L9.37092 6.47283C9.27161 6.65339 9.13845 6.79332 8.97144 6.89263C8.80442 6.99193 8.62161 7.04158 8.423 7.04158H4.38758L3.79175 8.12492H10.2917V9.20825H3.79175C3.3855 9.20825 3.07855 9.02995 2.87091 8.67336C2.66328 8.31676 2.65425 7.96242 2.84383 7.61033L3.57508 6.28325L1.62508 2.16659H0.541748V1.08325H2.30216L2.81675 2.16659Z" fill="#6D8CF7"/>
</g>
</svg>
