<svg width="14" height="14" viewBox="0 0 14 14" fill="none" xmlns="http://www.w3.org/2000/svg">
<mask id="mask0_185_2175" style="mask-type:alpha" maskUnits="userSpaceOnUse" x="0" y="0" width="14" height="14">
<rect width="14" height="14" fill="#D9D9D9"/>
</mask>
<g mask="url(#mask0_185_2175)">
<path d="M3.5 10.6667V11.25C3.5 11.4153 3.4441 11.5538 3.33229 11.6656C3.22049 11.7774 3.08194 11.8333 2.91667 11.8333H2.33333C2.16806 11.8333 2.02951 11.7774 1.91771 11.6656C1.8059 11.5538 1.75 11.4153 1.75 11.25V6.58333L2.975 3.08333C3.03333 2.90833 3.13785 2.76736 3.28854 2.66042C3.43924 2.55347 3.60694 2.5 3.79167 2.5H10.2083C10.3931 2.5 10.5608 2.55347 10.7115 2.66042C10.8622 2.76736 10.9667 2.90833 11.025 3.08333L12.25 6.58333V11.25C12.25 11.4153 12.1941 11.5538 12.0823 11.6656C11.9705 11.7774 11.8319 11.8333 11.6667 11.8333H11.0833C10.9181 11.8333 10.7795 11.7774 10.6677 11.6656C10.5559 11.5538 10.5 11.4153 10.5 11.25V10.6667H3.5ZM3.38333 5.41667H10.6167L10.0042 3.66667H3.99583L3.38333 5.41667ZM4.375 8.91667C4.61806 8.91667 4.82465 8.8316 4.99479 8.66146C5.16493 8.49132 5.25 8.28472 5.25 8.04167C5.25 7.79861 5.16493 7.59201 4.99479 7.42188C4.82465 7.25174 4.61806 7.16667 4.375 7.16667C4.13194 7.16667 3.92535 7.25174 3.75521 7.42188C3.58507 7.59201 3.5 7.79861 3.5 8.04167C3.5 8.28472 3.58507 8.49132 3.75521 8.66146C3.92535 8.8316 4.13194 8.91667 4.375 8.91667ZM9.625 8.91667C9.86806 8.91667 10.0747 8.8316 10.2448 8.66146C10.4149 8.49132 10.5 8.28472 10.5 8.04167C10.5 7.79861 10.4149 7.59201 10.2448 7.42188C10.0747 7.25174 9.86806 7.16667 9.625 7.16667C9.38194 7.16667 9.17535 7.25174 9.00521 7.42188C8.83507 7.59201 8.75 7.79861 8.75 8.04167C8.75 8.28472 8.83507 8.49132 9.00521 8.66146C9.17535 8.8316 9.38194 8.91667 9.625 8.91667Z" fill="#6D8CF7"/>
</g>
</svg>
