<svg width="14" height="14" viewBox="0 0 14 14" fill="none" xmlns="http://www.w3.org/2000/svg">
<mask id="mask0_178_2811" style="mask-type:alpha" maskUnits="userSpaceOnUse" x="0" y="0" width="14" height="14">
<rect width="14" height="14" fill="#D9D9D9"/>
</mask>
<g mask="url(#mask0_178_2811)">
<path d="M3.0625 7.03062C2.695 7.03062 2.38437 6.90449 2.13063 6.65222C1.87687 6.39996 1.75 6.09115 1.75 5.7258C1.75 5.36044 1.87687 5.05164 2.13063 4.79937C2.38437 4.5471 2.695 4.42097 3.0625 4.42097C3.43 4.42097 3.74062 4.5471 3.99437 4.79937C4.24812 5.05164 4.375 5.36044 4.375 5.7258C4.375 6.09115 4.24812 6.39996 3.99437 6.65222C3.74062 6.90449 3.43 7.03062 3.0625 7.03062ZM5.425 4.9429C5.0575 4.9429 4.74687 4.81677 4.49312 4.5645C4.23937 4.31224 4.1125 4.00343 4.1125 3.63808C4.1125 3.27273 4.23937 2.96392 4.49312 2.71165C4.74687 2.45938 5.0575 2.33325 5.425 2.33325C5.7925 2.33325 6.10313 2.45938 6.35687 2.71165C6.61063 2.96392 6.7375 3.27273 6.7375 3.63808C6.7375 4.00343 6.61063 4.31224 6.35687 4.5645C6.10313 4.81677 5.7925 4.9429 5.425 4.9429ZM8.575 4.9429C8.2075 4.9429 7.89687 4.81677 7.64313 4.5645C7.38937 4.31224 7.2625 4.00343 7.2625 3.63808C7.2625 3.27273 7.38937 2.96392 7.64313 2.71165C7.89687 2.45938 8.2075 2.33325 8.575 2.33325C8.9425 2.33325 9.25312 2.45938 9.50688 2.71165C9.76062 2.96392 9.8875 3.27273 9.8875 3.63808C9.8875 4.00343 9.76062 4.31224 9.50688 4.5645C9.25312 4.81677 8.9425 4.9429 8.575 4.9429ZM10.9375 7.03062C10.57 7.03062 10.2594 6.90449 10.0056 6.65222C9.75187 6.39996 9.625 6.09115 9.625 5.7258C9.625 5.36044 9.75187 5.05164 10.0056 4.79937C10.2594 4.5471 10.57 4.42097 10.9375 4.42097C11.305 4.42097 11.6156 4.5471 11.8694 4.79937C12.1231 5.05164 12.25 5.36044 12.25 5.7258C12.25 6.09115 12.1231 6.39996 11.8694 6.65222C11.6156 6.90449 11.305 7.03062 10.9375 7.03062ZM4.19125 12.2499C3.7975 12.2499 3.46719 12.0999 3.20031 11.7998C2.93344 11.4996 2.8 11.1452 2.8 10.7363C2.8 10.284 2.95531 9.88819 3.26594 9.54893C3.57656 9.20968 3.885 8.87477 4.19125 8.54422C4.445 8.27455 4.66375 7.98097 4.8475 7.66346C5.03125 7.34595 5.25 7.04802 5.50375 6.76966C5.69625 6.54349 5.91937 6.35646 6.17312 6.20858C6.42688 6.0607 6.7025 5.98676 7 5.98676C7.2975 5.98676 7.57312 6.05635 7.82687 6.19553C8.08062 6.33471 8.30375 6.51739 8.49625 6.74356C8.74125 7.02192 8.95781 7.32203 9.14594 7.64389C9.33406 7.96574 9.555 8.26585 9.80875 8.54422C10.115 8.87477 10.4234 9.20968 10.7341 9.54893C11.0447 9.88819 11.2 10.284 11.2 10.7363C11.2 11.1452 11.0666 11.4996 10.7997 11.7998C10.5328 12.0999 10.2025 12.2499 9.80875 12.2499C9.33625 12.2499 8.86812 12.2108 8.40437 12.1325C7.94062 12.0542 7.4725 12.015 7 12.015C6.5275 12.015 6.05937 12.0542 5.59562 12.1325C5.13188 12.2108 4.66375 12.2499 4.19125 12.2499Z" fill="#6D8CF7"/>
</g>
</svg>
