<svg width="13" height="14" viewBox="0 0 13 14" fill="none" xmlns="http://www.w3.org/2000/svg">
<mask id="mask0_193_2639" style="mask-type:alpha" maskUnits="userSpaceOnUse" x="0" y="0" width="13" height="14">
<rect y="0.0805664" width="13" height="13" fill="#D9D9D9"/>
</mask>
<g mask="url(#mask0_193_2639)">
<path d="M9.04583 8.35453L10.4813 6.90557C10.7701 6.61668 10.9913 6.28716 11.1448 5.91703C11.2983 5.54689 11.375 5.15869 11.375 4.75244C11.375 3.90383 11.0793 3.18387 10.488 2.59255C9.8967 2.00123 9.17674 1.70557 8.32813 1.70557C7.92188 1.70557 7.53368 1.7823 7.16354 1.93577C6.7934 2.08925 6.46389 2.31043 6.175 2.59932L4.72604 4.03473L9.04583 8.35453ZM4.67188 11.4556C5.07813 11.4556 5.46632 11.3788 5.83646 11.2254C6.2066 11.0719 6.53611 10.8507 6.825 10.5618L8.27396 9.1264L3.95417 4.80661L2.51875 6.25557C2.22986 6.54446 2.00868 6.87397 1.85521 7.24411C1.70174 7.61425 1.625 8.00244 1.625 8.40869C1.625 9.2573 1.92066 9.97727 2.51198 10.5686C3.1033 11.1599 3.82326 11.4556 4.67188 11.4556Z" fill="#F76D6D"/>
</g>
</svg>
