<svg width="24" height="22" viewBox="0 0 24 22" fill="none" xmlns="http://www.w3.org/2000/svg">
<path d="M19.6364 6.6V4.4H17.4545V2.2H19.6364V0H21.8182V2.2H24V4.4H21.8182V6.6H19.6364ZM10.9091 18.15C12.2727 18.15 13.4318 17.6688 14.3864 16.7063C15.3409 15.7438 15.8182 14.575 15.8182 13.2C15.8182 11.825 15.3409 10.6562 14.3864 9.69375C13.4318 8.73125 12.2727 8.25 10.9091 8.25C9.54545 8.25 8.38636 8.73125 7.43182 9.69375C6.47727 10.6562 6 11.825 6 13.2C6 14.575 6.47727 15.7438 7.43182 16.7063C8.38636 17.6688 9.54545 18.15 10.9091 18.15ZM10.9091 15.95C10.1455 15.95 9.5 15.6842 8.97273 15.1525C8.44546 14.6208 8.18182 13.97 8.18182 13.2C8.18182 12.43 8.44546 11.7792 8.97273 11.2475C9.5 10.7158 10.1455 10.45 10.9091 10.45C11.6727 10.45 12.3182 10.7158 12.8455 11.2475C13.3727 11.7792 13.6364 12.43 13.6364 13.2C13.6364 13.97 13.3727 14.6208 12.8455 15.1525C12.3182 15.6842 11.6727 15.95 10.9091 15.95ZM2.18182 22C1.58182 22 1.06818 21.7846 0.640909 21.3538C0.213636 20.9229 0 20.405 0 19.8V6.6C0 5.995 0.213636 5.47708 0.640909 5.04625C1.06818 4.61542 1.58182 4.4 2.18182 4.4H5.61818L7.63636 2.2H15.2727V6.6H17.4545V8.8H21.8182V19.8C21.8182 20.405 21.6045 20.9229 21.1773 21.3538C20.75 21.7846 20.2364 22 19.6364 22H2.18182Z" fill="#B2BDCC"/>
</svg>
