<svg width="18" height="18" viewBox="0 0 18 18" fill="none" xmlns="http://www.w3.org/2000/svg">
<mask id="mask0_591_18030" style="mask-type:alpha" maskUnits="userSpaceOnUse" x="0" y="0" width="18" height="18">
<rect width="18" height="18" fill="#D9D9D9"/>
</mask>
<g mask="url(#mask0_591_18030)">
<path d="M6 9.75H7.5V7.5C7.5 7.0875 7.64688 6.73438 7.94063 6.44063C8.23438 6.14688 8.5875 6 9 6V4.5C8.175 4.5 7.46875 4.79375 6.88125 5.38125C6.29375 5.96875 6 6.675 6 7.5V9.75ZM3 15.75C2.5875 15.75 2.23438 15.6031 1.94063 15.3094C1.64688 15.0156 1.5 14.6625 1.5 14.25V12.75C1.5 12.3375 1.64688 11.9844 1.94063 11.6906C2.23438 11.3969 2.5875 11.25 3 11.25H3.75V7.5C3.75 6.0375 4.25937 4.79688 5.27812 3.77813C6.29688 2.75938 7.5375 2.25 9 2.25C10.4625 2.25 11.7031 2.75938 12.7219 3.77813C13.7406 4.79688 14.25 6.0375 14.25 7.5V11.25H15C15.4125 11.25 15.7656 11.3969 16.0594 11.6906C16.3531 11.9844 16.5 12.3375 16.5 12.75V14.25C16.5 14.6625 16.3531 15.0156 16.0594 15.3094C15.7656 15.6031 15.4125 15.75 15 15.75H3Z" fill="#B2BDCC"/>
</g>
</svg>
