<svg width="24" height="24" viewBox="0 0 24 24" fill="none" xmlns="http://www.w3.org/2000/svg">
<path fill-rule="evenodd" clip-rule="evenodd" d="M12 24C18.6274 24 24 18.6274 24 12C24 5.37258 18.6274 0 12 0C5.37258 0 0 5.37258 0 12C0 18.6274 5.37258 24 12 24ZM18.0405 8.70711C18.431 8.31658 18.431 7.68342 18.0405 7.29289C17.65 6.90237 17.0168 6.90237 16.6263 7.29289L10.0001 13.9191L7.37385 11.2929C6.98333 10.9024 6.35017 10.9024 5.95964 11.2929C5.56912 11.6834 5.56912 12.3166 5.95964 12.7071L9.29297 16.0404C9.6835 16.431 10.3167 16.431 10.7072 16.0404L18.0405 8.70711Z" fill="white"/>
</svg>
