<svg width="27" height="27" viewBox="0 0 27 27" fill="none" xmlns="http://www.w3.org/2000/svg">
<path d="M18 11C18 9.4087 17.3679 7.88258 16.2426 6.75736C15.1174 5.63214 13.5913 5 12 5C10.4087 5 8.88258 5.63214 7.75736 6.75736C6.63214 7.88258 6 9.4087 6 11C6 18 3 20 3 20H21C21 20 18 18 18 11Z" fill="#A5AEBA" stroke="#A5AEBA" stroke-width="2" stroke-linecap="round" stroke-linejoin="round"/>
<path d="M14.6008 23C14.8217 23 15.0028 23.1801 14.9737 23.3991C14.7786 24.8673 13.5216 26.0001 12 26.0001C10.4784 26.0001 9.22144 24.8673 9.0263 23.3991C8.9972 23.1801 9.17834 23 9.39925 23C9.91744 23 10.8881 23 12 23C13.1119 23 14.0826 23 14.6008 23Z" fill="#A5AEBA"/>
<circle cx="24" cy="3" r="3" fill="#6D8CF7"/>
</svg>
