<svg width="24" height="24" viewBox="0 0 24 24" fill="none" xmlns="http://www.w3.org/2000/svg">
<path d="M18 8C18 6.4087 17.3679 4.88258 16.2426 3.75736C15.1174 2.63214 13.5913 2 12 2C10.4087 2 8.88258 2.63214 7.75736 3.75736C6.63214 4.88258 6 6.4087 6 8C6 15 3 17 3 17H21C21 17 18 15 18 8Z" fill="#A5AEBA" stroke="#A5AEBA" stroke-width="2" stroke-linecap="round" stroke-linejoin="round"/>
<path d="M14.6008 20C14.8217 20 15.0028 20.1801 14.9737 20.3991C14.7786 21.8673 13.5216 23.0001 12 23.0001C10.4784 23.0001 9.22144 21.8673 9.0263 20.3991C8.9972 20.1801 9.17834 20 9.39925 20C9.91744 20 10.8881 20 12 20C13.1119 20 14.0826 20 14.6008 20Z" fill="#A5AEBA"/>
</svg>
