<svg width="24" height="25" viewBox="0 0 24 25" fill="none" xmlns="http://www.w3.org/2000/svg">
<path fill-rule="evenodd" clip-rule="evenodd" d="M11.8527 0.632812C5.85891 0.632812 1 5.49172 1 11.4855C1 14.0198 1.86865 16.3512 3.32446 18.1982L1.964 23.2755C1.71602 24.201 2.71077 24.9643 3.54054 24.4852L8.29349 21.7411C9.40845 22.128 10.606 22.3382 11.8527 22.3382C17.8465 22.3382 22.7054 17.4793 22.7054 11.4855C22.7054 5.49172 17.8465 0.632812 11.8527 0.632812ZM8.89132 8.97369C8.44585 8.97369 8.08473 9.33481 8.08473 9.78028C8.08473 10.2257 8.44585 10.5869 8.89132 10.5869H8.90249C9.34796 10.5869 9.70908 10.2257 9.70908 9.78028C9.70908 9.33481 9.34796 8.97369 8.90249 8.97369H8.89132ZM14.0097 9.78028C14.0097 9.33481 14.3708 8.97369 14.8163 8.97369H14.8275C15.2729 8.97369 15.634 9.33481 15.634 9.78028C15.634 10.2257 15.2729 10.5869 14.8275 10.5869H14.8163C14.3708 10.5869 14.0097 10.2257 14.0097 9.78028ZM8.3583 12.8471C8.19514 12.7087 7.96864 12.6343 7.7508 12.6494C7.22569 12.6859 6.87685 13.1817 7.02417 13.6677C7.08726 13.8764 7.29508 14.0902 7.44897 14.2475C8.10904 14.9225 8.95727 15.4868 9.8598 15.8158C12.0585 16.6173 14.3492 15.9909 15.997 14.4559C16.2162 14.2518 16.5858 13.901 16.6496 13.6129C16.8122 12.877 15.9348 12.3539 15.3261 12.8265C15.2759 12.8653 15.2412 12.907 15.2051 12.9504C15.1885 12.9703 15.1716 12.9906 15.1528 13.0111C14.0553 14.2093 12.4729 14.8883 10.8062 14.4511C9.95319 14.2274 9.14406 13.702 8.55919 13.0707C8.53416 13.0437 8.51069 13.0151 8.48719 12.9864C8.44695 12.9374 8.40665 12.8882 8.3583 12.8471Z" fill="#B2BDCC"/>
</svg>
