
<svg width="33" height="32" viewBox="0 0 33 32" fill="none" xmlns="http://www.w3.org/2000/svg">
<path d="M28.5 15.3334C28.5046 17.0932 28.0934 18.8292 27.3 20.4C26.3592 22.2824 24.913 23.8656 23.1233 24.9724C21.3335 26.0792 19.271 26.6659 17.1667 26.6667C15.4068 26.6713 13.6708 26.2601 12.1 25.4667L4.5 28L7.03333 20.4C6.23991 18.8292 5.82875 17.0932 5.83333 15.3334C5.83415 13.229 6.42082 11.1665 7.52763 9.37677C8.63444 7.58704 10.2177 6.14079 12.1 5.20004C13.6708 4.40661 15.4068 3.99545 17.1667 4.00004H17.8333C20.6125 4.15336 23.2374 5.32639 25.2055 7.29452C27.1737 9.26265 28.3467 11.8876 28.5 14.6667V15.3334Z" fill="#D1D9E2" stroke="#D1D9E2" stroke-width="2" stroke-linecap="round" stroke-linejoin="round"/>
</svg>
