<svg width="28" height="28" viewBox="0 0 28 28" fill="none" xmlns="http://www.w3.org/2000/svg">
<rect width="28" height="28" rx="14" fill="#ECF5FF"/>
<mask id="mask0_210_5124" style="mask-type:alpha" maskUnits="userSpaceOnUse" x="5" y="5" width="18" height="18">
<rect x="5" y="5" width="18" height="18" fill="#D9D9D9"/>
</mask>
<g mask="url(#mask0_210_5124)">
<path d="M13.125 21.7002C11.3604 21.4834 9.89844 20.721 8.73906 19.4129C7.57969 18.1049 7 16.5692 7 14.8059C7 13.852 7.18958 12.9378 7.56875 12.0633C7.94792 11.1889 8.4875 10.4265 9.1875 9.77608L10.4344 11.0118C9.88021 11.5033 9.46094 12.0742 9.17656 12.7246C8.89219 13.375 8.75 14.0688 8.75 14.8059C8.75 16.0778 9.15833 17.2015 9.975 18.1772C10.7917 19.1528 11.8417 19.749 13.125 19.9658V21.7002ZM14.875 21.7002V19.9658C16.1438 19.7345 17.1901 19.1347 18.0141 18.1663C18.838 17.1979 19.25 16.0778 19.25 14.8059C19.25 13.3605 18.7396 12.132 17.7188 11.1202C16.6979 10.1085 15.4583 9.60263 14 9.60263H13.9344L14.8969 10.5566L13.6719 11.7707L10.6094 8.73543L13.6719 5.7002L14.8969 6.91429L13.9344 7.86822H14C15.9542 7.86822 17.6094 8.5403 18.9656 9.88448C20.3219 11.2287 21 12.8691 21 14.8059C21 16.5548 20.4203 18.0832 19.2609 19.3913C18.1016 20.6993 16.6396 21.4689 14.875 21.7002Z" fill="#6D8CF7"/>
</g>
</svg>
