<svg width="24" height="24" viewBox="0 0 24 24" fill="none" xmlns="http://www.w3.org/2000/svg">
<path d="M20.7405 7.03907L13.6637 1.57937C12.662 0.806877 11.3322 0.806877 10.3304 1.57937L3.25366 7.03907C2.46866 7.64893 2 8.64214 2 9.70504V19.7532C2 21.548 3.30638 23 4.92326 23H19.0767C20.6936 23 22 21.548 22 19.7532V9.70504C22 8.64214 21.5313 7.64313 20.7463 7.03907H20.7405ZM12 19.1492C9.75044 19.1492 7.92267 17.337 7.92267 15.1067C7.92267 12.8763 9.75044 11.0642 12 11.0642C14.2496 11.0642 16.0773 12.8763 16.0773 15.1067C16.0773 17.337 14.2496 19.1492 12 19.1492Z" fill="#B2BDCC"/>
</svg>
