<svg width="18" height="18" viewBox="0 0 18 18" fill="none" xmlns="http://www.w3.org/2000/svg">
<path d="M15.5554 5.2793L10.2478 1.18453C9.49649 0.605158 8.49912 0.605158 7.7478 1.18453L2.44025 5.2793C1.85149 5.7367 1.5 6.4816 1.5 7.27878V14.8149C1.5 16.161 2.47979 17.25 3.69244 17.25H14.3076C15.5202 17.25 16.5 16.161 16.5 14.8149V7.27878C16.5 6.4816 16.1485 5.73234 15.5598 5.2793H15.5554ZM9 14.3619C7.31283 14.3619 5.942 13.0028 5.942 11.33C5.942 9.65723 7.31283 8.29812 9 8.29812C10.6872 8.29812 12.058 9.65723 12.058 11.33C12.058 13.0028 10.6872 14.3619 9 14.3619Z" fill="#6D8CF7"/>
</svg>
