<svg width="24" height="24" viewBox="0 0 24 24" fill="none" xmlns="http://www.w3.org/2000/svg">
<path fill-rule="evenodd" clip-rule="evenodd" d="M20.8 3H3.2C1.99 3 1 4.0125 1 5.25V18.75C1 19.9875 1.99 21 3.2 21H20.8C22.01 21 23 19.9875 23 18.75V5.25C23 4.0125 22.01 3 20.8 3ZM4.04567 6.5983C4.16666 6.241 4.50634 6 4.88894 6H19.1111C19.4937 6 19.8333 6.241 19.9543 6.5983C20.0753 6.9556 19.9505 7.34902 19.6444 7.575L12.5333 12.825C12.2173 13.0583 11.7827 13.0583 11.4667 12.825L4.35561 7.575C4.04953 7.34902 3.92468 6.9556 4.04567 6.5983Z" fill="#B2BDCC"/>
</svg>
