<svg width="16" height="16" viewBox="0 0 16 16" fill="none" xmlns="http://www.w3.org/2000/svg">
<mask id="mask0_920_22669" style="mask-type:alpha" maskUnits="userSpaceOnUse" x="0" y="0" width="16" height="16">
<rect width="16" height="16" fill="#D9D9D9"/>
</mask>
<g mask="url(#mask0_920_22669)">
<path d="M11.9998 13.5998H4.3998V5.5998L9.1998 0.799805L9.73314 1.16647C9.93314 1.31092 10.0804 1.49425 10.1748 1.71647C10.2692 1.93869 10.2887 2.16647 10.2331 2.3998L9.5998 5.5998H13.9998C14.3331 5.5998 14.6165 5.71647 14.8498 5.9498C15.0831 6.18314 15.1998 6.46647 15.1998 6.7998V7.7498C15.1998 7.83869 15.1915 7.91925 15.1748 7.99147C15.1581 8.06369 15.1331 8.13869 15.0998 8.21647L13.1165 12.8665C13.0165 13.0887 12.8665 13.2665 12.6665 13.3998C12.4665 13.5331 12.2442 13.5998 11.9998 13.5998ZM3.1998 5.5998V13.5998H0.799805V5.5998H3.1998Z" fill="#B2BDCC"/>
</g>
</svg>
