<svg width="81" height="75" viewBox="0 0 81 75" fill="none" xmlns="http://www.w3.org/2000/svg">
<mask id="path-1-inside-1_497_14286" fill="white">
<path fill-rule="evenodd" clip-rule="evenodd" d="M58.826 40.8954C62.6995 36.5547 65.0538 30.8291 65.0538 24.5536C65.0538 10.993 54.0608 0 40.5002 0C26.9397 0 15.9467 10.993 15.9467 24.5536C15.9467 30.7553 18.2459 36.42 22.0385 40.7417C9.20613 47.3619 0.432129 60.7471 0.432129 76.1815H80.1376C80.1376 60.8655 71.4978 47.5675 58.826 40.8954Z"/>
</mask>
<path fill-rule="evenodd" clip-rule="evenodd" d="M58.826 40.8954C62.6995 36.5547 65.0538 30.8291 65.0538 24.5536C65.0538 10.993 54.0608 0 40.5002 0C26.9397 0 15.9467 10.993 15.9467 24.5536C15.9467 30.7553 18.2459 36.42 22.0385 40.7417C9.20613 47.3619 0.432129 60.7471 0.432129 76.1815H80.1376C80.1376 60.8655 71.4978 47.5675 58.826 40.8954Z" fill="#ECF5FF"/>
<path d="M58.826 40.8954L57.0055 39.2708L54.9271 41.6L57.6893 43.0544L58.826 40.8954ZM22.0385 40.7417L23.1571 42.9101L25.9315 41.4788L23.8724 39.1324L22.0385 40.7417ZM0.432129 76.1815H-2.00783V78.6214H0.432129V76.1815ZM80.1376 76.1815V78.6214H82.5776V76.1815H80.1376ZM60.6465 42.5199C64.9035 37.7495 67.4938 31.4511 67.4938 24.5536H62.6138C62.6138 30.207 60.4955 35.3599 57.0055 39.2708L60.6465 42.5199ZM67.4938 24.5536C67.4938 9.64545 55.4083 -2.43996 40.5002 -2.43996V2.43996C52.7132 2.43996 62.6138 12.3406 62.6138 24.5536H67.4938ZM40.5002 -2.43996C25.5921 -2.43996 13.5067 9.64545 13.5067 24.5536H18.3866C18.3866 12.3406 28.2872 2.43996 40.5002 2.43996V-2.43996ZM13.5067 24.5536C13.5067 31.3699 16.0363 37.6013 20.2045 42.3511L23.8724 39.1324C20.4555 35.2387 18.3866 30.1407 18.3866 24.5536H13.5067ZM20.9198 38.5733C7.30788 45.5957 -2.00783 59.7986 -2.00783 76.1815H2.87209C2.87209 61.6955 11.1044 49.1282 23.1571 42.9101L20.9198 38.5733ZM0.432129 78.6214H80.1376V73.7415H0.432129V78.6214ZM82.5776 76.1815C82.5776 59.9244 73.4042 45.8138 59.9628 38.7364L57.6893 43.0544C69.5913 49.3212 77.6976 61.8067 77.6976 76.1815H82.5776Z" fill="#ECF5FF" mask="url(#path-1-inside-1_497_14286)"/>
<path d="M30.6797 29.4639C30.6797 29.4639 34.3627 34.3746 40.5011 34.3746C46.6395 34.3746 50.3225 29.4639 50.3225 29.4639" stroke="#CAE2FF" stroke-width="3.125" stroke-linecap="round" stroke-linejoin="round"/>
<path d="M33.1328 20.3125H33.1572" stroke="#CAE2FF" stroke-width="3.125" stroke-linecap="round" stroke-linejoin="round"/>
<path d="M47.8672 20.3125H47.8916" stroke="#CAE2FF" stroke-width="3.125" stroke-linecap="round" stroke-linejoin="round"/>
</svg>
