<svg width="20" height="23" viewBox="0 0 20 23" fill="none" xmlns="http://www.w3.org/2000/svg">
<path d="M8.83342 22.2667C6.48064 21.9776 4.53133 20.9611 2.9855 19.217C1.43966 17.4729 0.666748 15.4254 0.666748 13.0743C0.666748 11.8024 0.919526 10.5835 1.42508 9.41754C1.93064 8.25163 2.65008 7.23507 3.58342 6.36786L5.24592 8.01555C4.50703 8.67078 3.948 9.43199 3.56883 10.2992C3.18966 11.1664 3.00008 12.0914 3.00008 13.0743C3.00008 14.7701 3.54453 16.2685 4.63342 17.5693C5.7223 18.8701 7.1223 19.6651 8.83342 19.9541V22.2667ZM11.1667 22.2667V19.9541C12.8584 19.6458 14.2536 18.846 15.3522 17.5548C16.4508 16.2637 17.0001 14.7701 17.0001 13.0743C17.0001 11.1471 16.3195 9.50908 14.9584 8.16009C13.5973 6.8111 11.9445 6.1366 10.0001 6.1366H9.91258L11.1959 7.40851L9.56258 9.0273L5.47925 4.98032L9.56258 0.93335L11.1959 2.55214L9.91258 3.82404H10.0001C12.6056 3.82404 14.8126 4.72016 16.6209 6.51239C18.4292 8.30462 19.3334 10.4919 19.3334 13.0743C19.3334 15.4061 18.5605 17.444 17.0147 19.1881C15.4688 20.9321 13.5195 21.9583 11.1667 22.2667Z" fill="#6D8CF7"/>
</svg>
