<svg width="18" height="18" viewBox="0 0 18 18" fill="none" xmlns="http://www.w3.org/2000/svg">
<mask id="mask0_463_5524" style="mask-type:alpha" maskUnits="userSpaceOnUse" x="0" y="0" width="18" height="18">
<rect width="18" height="18" fill="#D9D9D9"/>
</mask>
<g mask="url(#mask0_463_5524)">
<path d="M8.125 16.7002C6.36042 16.4834 4.89844 15.721 3.73906 14.4129C2.57969 13.1049 2 11.5692 2 9.80589C2 8.85196 2.18958 7.93777 2.56875 7.06334C2.94792 6.1889 3.4875 5.42648 4.1875 4.77608L5.43438 6.01185C4.88021 6.50327 4.46094 7.07418 4.17656 7.72459C3.89219 8.37499 3.75 9.06876 3.75 9.80589C3.75 11.0778 4.15833 12.2015 4.975 13.1772C5.79167 14.1528 6.84167 14.749 8.125 14.9658V16.7002ZM9.875 16.7002V14.9658C11.1438 14.7345 12.1901 14.1347 13.0141 13.1663C13.838 12.1979 14.25 11.0778 14.25 9.80589C14.25 8.36054 13.7396 7.13199 12.7188 6.12025C11.6979 5.10851 10.4583 4.60263 9 4.60263H8.93438L9.89688 5.55656L8.67188 6.77066L5.60938 3.73543L8.67188 0.700195L9.89688 1.91429L8.93438 2.86822H9C10.9542 2.86822 12.6094 3.5403 13.9656 4.88448C15.3219 6.22865 16 7.86912 16 9.80589C16 11.5548 15.4203 13.0832 14.2609 14.3913C13.1016 15.6993 11.6396 16.4689 9.875 16.7002Z" fill="#6D8CF7"/>
</g>
</svg>
