<svg width="18" height="18" viewBox="0 0 18 18" fill="none" xmlns="http://www.w3.org/2000/svg">
<mask id="mask0_463_10101" style="mask-type:alpha" maskUnits="userSpaceOnUse" x="0" y="0" width="18" height="18">
<rect width="18" height="18" fill="#D9D9D9"/>
</mask>
<g mask="url(#mask0_463_10101)">
<path d="M8.99563 12.5C9.20688 12.5 9.38542 12.4285 9.53125 12.2856C9.67708 12.1427 9.75 11.9656 9.75 11.7544C9.75 11.5431 9.67854 11.3646 9.53563 11.2188C9.39271 11.0729 9.21563 11 9.00438 11C8.79313 11 8.61458 11.0715 8.46875 11.2144C8.32292 11.3573 8.25 11.5344 8.25 11.7456C8.25 11.9569 8.32146 12.1354 8.46438 12.2812C8.60729 12.4271 8.78438 12.5 8.99563 12.5ZM8.99563 9.75C9.20688 9.75 9.38542 9.67854 9.53125 9.53562C9.67708 9.39271 9.75 9.21562 9.75 9.00437C9.75 8.79313 9.67854 8.61458 9.53563 8.46875C9.39271 8.32292 9.21563 8.25 9.00438 8.25C8.79313 8.25 8.61458 8.32146 8.46875 8.46438C8.32292 8.60729 8.25 8.78438 8.25 8.99563C8.25 9.20688 8.32146 9.38542 8.46438 9.53125C8.60729 9.67708 8.78438 9.75 8.99563 9.75ZM8.99563 7C9.20688 7 9.38542 6.92854 9.53125 6.78563C9.67708 6.64271 9.75 6.46563 9.75 6.25438C9.75 6.04313 9.67854 5.86458 9.53563 5.71875C9.39271 5.57292 9.21563 5.5 9.00438 5.5C8.79313 5.5 8.61458 5.57146 8.46875 5.71437C8.32292 5.85729 8.25 6.03437 8.25 6.24562C8.25 6.45687 8.32146 6.63542 8.46438 6.78125C8.60729 6.92708 8.78438 7 8.99563 7ZM15.5 15H2.5C2.0875 15 1.73438 14.8531 1.44063 14.5594C1.14688 14.2656 1 13.9125 1 13.5V10.5C1.4125 10.5 1.76563 10.3527 2.05938 10.0581C2.35313 9.76354 2.5 9.40938 2.5 8.99563C2.5 8.58188 2.35313 8.22812 2.05938 7.93437C1.76563 7.64062 1.4125 7.49375 1 7.49375V4.49375C1 4.08125 1.14688 3.72917 1.44063 3.4375C1.73438 3.14583 2.0875 3 2.5 3H15.5C15.9125 3 16.2656 3.14688 16.5594 3.44063C16.8531 3.73438 17 4.0875 17 4.5V7.5C16.5875 7.5 16.2344 7.64729 15.9406 7.94188C15.6469 8.23646 15.5 8.59062 15.5 9.00437C15.5 9.41813 15.6469 9.77188 15.9406 10.0656C16.2344 10.3594 16.5875 10.5062 17 10.5062V13.5063C17 13.9188 16.8531 14.2708 16.5594 14.5625C16.2656 14.8542 15.9125 15 15.5 15Z" fill="#6D8CF7"/>
</g>
</svg>
