<svg width="14" height="14" viewBox="0 0 14 14" fill="none" xmlns="http://www.w3.org/2000/svg">
<mask id="mask0_193_2500" style="mask-type:alpha" maskUnits="userSpaceOnUse" x="0" y="0" width="14" height="14">
<rect width="14" height="14" fill="#D9D9D9"/>
</mask>
<g mask="url(#mask0_193_2500)">
<path d="M3.49992 12.2501C3.33464 12.2501 3.1961 12.1942 3.08429 12.0824C2.97249 11.9706 2.91659 11.832 2.91659 11.6667V10.4709C2.74159 10.2765 2.60061 10.0602 2.49367 9.82196C2.38672 9.58376 2.33325 9.32369 2.33325 9.04175V3.50008C2.33325 2.69314 2.70756 2.10251 3.45617 1.72821C4.20478 1.3539 5.38603 1.16675 6.99992 1.16675C8.67214 1.16675 9.86797 1.34661 10.5874 1.70633C11.3069 2.06605 11.6666 2.66397 11.6666 3.50008V9.04175C11.6666 9.32369 11.6131 9.58376 11.5062 9.82196C11.3992 10.0602 11.2583 10.2765 11.0833 10.4709V11.6667C11.0833 11.832 11.0273 11.9706 10.9155 12.0824C10.8037 12.1942 10.6652 12.2501 10.4999 12.2501H9.91658C9.75131 12.2501 9.61277 12.1942 9.50096 12.0824C9.38915 11.9706 9.33325 11.832 9.33325 11.6667V11.0834H4.66659V11.6667C4.66659 11.832 4.61068 11.9706 4.49888 12.0824C4.38707 12.1942 4.24853 12.2501 4.08325 12.2501H3.49992ZM3.49992 5.83341H10.4999V4.08341H3.49992V5.83341ZM4.95825 9.33341C5.20131 9.33341 5.4079 9.24835 5.57804 9.07821C5.74818 8.90807 5.83325 8.70147 5.83325 8.45841C5.83325 8.21536 5.74818 8.00876 5.57804 7.83862C5.4079 7.66848 5.20131 7.58341 4.95825 7.58341C4.7152 7.58341 4.5086 7.66848 4.33846 7.83862C4.16832 8.00876 4.08325 8.21536 4.08325 8.45841C4.08325 8.70147 4.16832 8.90807 4.33846 9.07821C4.5086 9.24835 4.7152 9.33341 4.95825 9.33341ZM9.04158 9.33341C9.28464 9.33341 9.49124 9.24835 9.66138 9.07821C9.83152 8.90807 9.91658 8.70147 9.91658 8.45841C9.91658 8.21536 9.83152 8.00876 9.66138 7.83862C9.49124 7.66848 9.28464 7.58341 9.04158 7.58341C8.79853 7.58341 8.59193 7.66848 8.42179 7.83862C8.25165 8.00876 8.16658 8.21536 8.16658 8.45841C8.16658 8.70147 8.25165 8.90807 8.42179 9.07821C8.59193 9.24835 8.79853 9.33341 9.04158 9.33341Z" fill="#7B838F"/>
</g>
</svg>
