<svg width="50" height="50" viewBox="0 0 50 50" fill="none" xmlns="http://www.w3.org/2000/svg">
<rect width="50" height="50" rx="8" fill="#ECF5FF"/>
<mask id="mask0_225_4261" style="mask-type:alpha" maskUnits="userSpaceOnUse" x="13" y="13" width="24" height="24">
<rect x="13" y="13" width="24" height="24" fill="#D9D9D9"/>
</mask>
<g mask="url(#mask0_225_4261)">
<path d="M23.8334 35.2664C21.4806 34.9774 19.5313 33.9608 17.9855 32.2168C16.4397 30.4727 15.6667 28.4251 15.6667 26.074C15.6667 24.8021 15.9195 23.5832 16.4251 22.4173C16.9306 21.2514 17.6501 20.2348 18.5834 19.3676L20.2459 21.0153C19.507 21.6705 18.948 22.4318 18.5688 23.299C18.1897 24.1662 18.0001 25.0912 18.0001 26.074C18.0001 27.7699 18.5445 29.2682 19.6334 30.5691C20.7223 31.8699 22.1223 32.6648 23.8334 32.9539V35.2664ZM26.1667 35.2664V32.9539C27.8584 32.6455 29.2536 31.8458 30.3522 30.5546C31.4508 29.2634 32.0001 27.7699 32.0001 26.074C32.0001 24.1469 31.3195 22.5088 29.9584 21.1598C28.5973 19.8109 26.9445 19.1364 25.0001 19.1364H24.9126L26.1959 20.4083L24.5626 22.0271L20.4792 17.9801L24.5626 13.9331L26.1959 15.5519L24.9126 16.8238H25.0001C27.6056 16.8238 29.8126 17.7199 31.6209 19.5121C33.4292 21.3044 34.3334 23.4917 34.3334 26.074C34.3334 28.4059 33.5605 30.4438 32.0147 32.1878C30.4688 33.9319 28.5195 34.9581 26.1667 35.2664Z" fill="#6D8CF7"/>
</g>
</svg>
